<?xml version="1.0" encoding="utf-8"?>
<!-- Generator: Adobe Illustrator 23.0.4, SVG Export Plug-In . SVG Version: 6.00 Build 0)  -->
<svg version="1.1" id="Capa_1" xmlns="http://www.w3.org/2000/svg" xmlns:xlink="http://www.w3.org/1999/xlink" x="0px" y="0px"
	 viewBox="0 0 944 221" style="enable-background:new 0 0 944 221;" xml:space="preserve">
<style type="text/css">
	.st0{fill:#E2A01E;}
	.st1{fill:#FFFFFF;}
</style>
<g>
	<g>
		<path class="st0" d="M35.34,121.98c0-38.55,32.72-74.28,77.28-74.28c26.17,0,41.91,10.08,50.58,21.4l-20.16,17.86
			c-7.25-7.96-16.98-14.33-32.54-14.33c-26.53,0-46.86,22.64-46.86,48.46c0,19.28,14.15,29.71,31.65,29.71
			c9.55,0,16.62-2.3,22.11-4.78l5.84-20.16H95.82l6.37-23.52h53.76l-17.51,61.72c-12.2,6.9-26.35,11.67-44.92,11.67
			C65.22,175.74,35.34,158.94,35.34,121.98z"/>
		<path class="st0" d="M164.16,117.54c0-23.47,20.25-45.48,45.48-45.48c23.33,0,37.85,15.4,37.85,36.38
			c0,23.47-20.25,45.48-45.48,45.48C178.68,153.93,164.16,138.52,164.16,117.54z M225.63,109.03c0-11.44-6.9-17.9-17.02-17.9
			c-13.64,0-22.59,14.67-22.59,25.82c0,11.44,6.89,17.9,17.02,17.9C216.68,134.85,225.63,120.18,225.63,109.03z"/>
		<path class="st1" d="M339.92,138.08c0-3.23,0.59-6.31,1.47-9.83l9.54-35.65h-9.39l5.13-19.07h9.39l5.43-20.1l16.87,20.1h18.49
			l-5.14,19.07h-18.49l-8.8,33.01c-0.29,1.17-0.59,2.64-0.59,3.52c0,2.93,1.91,4.69,6.02,4.69c3.52,0,7.78-0.88,11.44-2.49
			l-5.13,18.93c-4.4,2.05-10.12,3.23-16.14,3.23C346.52,153.49,339.92,146.74,339.92,138.08z"/>
		<path class="st1" d="M407.4,73.53l18.05,15.84c7.92-11.59,17.02-18.34,29.93-17.31l-6.31,23.33h-1.17
			c-14.82,0-26.26,8.51-31.69,28.9l-7.48,27.87h-22.3L407.4,73.53z"/>
		<path class="st1" d="M486.62,136.03c5.87,0,11-1.76,17.46-6.31l10.27,13.79c-7.04,5.87-16.87,10.42-30.22,10.42
			c-22.59,0-36.38-13.2-36.38-34.92c0-22.74,18.49-46.95,46.65-46.95c20.39,0,32.13,13.2,32.13,30.66c0,5.57-1.47,11.88-3.96,17.9
			h-53.84C469.45,129.87,474.88,136.03,486.62,136.03z M504.81,106.68c0.44-1.47,0.73-3.23,0.73-5.13c0-6.45-3.81-11.59-12.91-11.59
			c-10.12,0-18.34,6.75-22.01,16.72H504.81z"/>
		<path class="st1" d="M553.22,45.07h22.3l-14.96,55.46l55.8-26.99l-32.92,30.66l17.16,47.97h-24.94l-11.15-33.3l-11.3,9.1
			l-6.45,24.21h-22.3L553.22,45.07z"/>
		<path class="st0" d="M634.04,45.07h22.3l-14.96,55.46l55.8-26.99l-32.92,30.66l17.16,47.97h-24.94l-11.15-33.3l-11.3,9.1
			l-6.45,24.21h-22.3L634.04,45.07z"/>
		<path class="st0" d="M708.12,73.53h22.3l-21.13,78.64H687L708.12,73.53z M715.31,45.07l18.05,19.81h-23.47L715.31,45.07z"/>
		<path class="st0" d="M745.53,73.53l20.1,8.22c5.58-4.99,12.62-9.68,21.42-9.68c14.08,0,23.18,8.66,23.18,22.89
			c0,4.4-1.32,9.98-2.64,14.96l-11.3,42.25h-22.3l11.59-43.13c0.59-2.2,1.03-5.13,1.03-7.04c0-6.31-3.96-9.68-10.86-9.68
			c-8.8,0-14.52,6.31-17.02,15.7l-11.88,44.16h-22.3L745.53,73.53z"/>
		<path class="st0" d="M805.09,164.93l11.74-15.26c8.22,5.43,18.49,8.66,28.31,8.66c7.48,0,12.76-2.05,17.02-6.31
			c3.37-3.37,5.43-7.92,7.19-14.08l0.73-2.64c-8.22,7.34-14.96,10.42-24.65,10.42c-15.11,0-29.2-9.54-29.2-27.43
			c0-26.26,21.27-46.21,42.99-46.21c13.5,0,19.81,6.45,23.91,13.64l3.23-12.18h22.3l-16.87,63.23
			c-4.25,15.84-7.48,22.01-13.79,28.31c-7.19,7.19-17.02,10.86-31.4,10.86C830.76,175.93,815.5,171.97,805.09,164.93z
			 M877.41,105.07c0-8.95-6.16-14.38-15.55-14.38c-12.47,0-22.59,11.15-22.59,23.33c0,9.24,6.16,13.94,14.96,13.94
			C866.56,127.96,877.41,117.54,877.41,105.07z"/>
	</g>
	<g>
		<path class="st1" d="M295.63,147.78c-1.53,0-3.07-0.59-4.24-1.76c-2.34-2.34-2.34-6.13,0-8.47l25.72-25.72l-25.72-25.72
			c-2.34-2.34-2.34-6.13,0-8.47c2.34-2.34,6.13-2.34,8.47,0l34.2,34.19l-34.2,34.19C298.69,147.2,297.16,147.78,295.63,147.78z"/>
	</g>
	<g>
		<path class="st1" d="M271.66,135.8c-1.53,0-3.07-0.59-4.24-1.76c-2.34-2.34-2.34-6.13,0-8.47l13.74-13.74l-13.74-13.74
			c-2.34-2.34-2.34-6.13,0-8.47c2.34-2.34,6.13-2.34,8.47,0l22.21,22.21l-22.21,22.21C274.73,135.21,273.19,135.8,271.66,135.8z"/>
	</g>
</g>
</svg>
